<svg xmlns="http://www.w3.org/2000/svg" class="leaflet-zoom-animated" width="600" height="600" viewBox="0 0 600 600"><defs>
    <style>
      .cls-1 {
        fill: #112b3e;
        stroke: #4ca7a7;
        stroke-width: 1px;
        fill-rule: evenodd;
      }
    </style>
  </defs><g>
	<path stroke-linejoin="round" stroke="#f9fcfe" stroke-width="1" fill="#aad5ff" class="leaflet-clickable" d="M324 524L324 524z"/></g><g><path stroke-linejoin="round" stroke="#f9fcfe" stroke-width="1" fill="#aad5ff" class="leaflet-clickable" d="M420 326L418 333L413 334L417 338L414 341L416 343L416 351L415 350L414 353L412 354L412 359L408 359L406 361L406 364L402 364L402 362L399 363L398 371L395 373L389 373L386 376L384 376L379 373L377 374L372 371L371 372L367 370L367 368L366 369L362 366L362 368L358 372L356 371L356 373L351 377L346 377L338 374L331 375L332 373L329 371L324 371L324 360L326 359L329 361L335 361L338 356L340 357L338 355L333 354L330 349L330 345L332 343L334 344L337 341L335 340L334 337L329 337L329 335L331 335L334 331L337 333L340 332L341 330L345 333L349 331L352 333L355 330L358 323L363 324L367 321L369 321L369 323L376 322L379 325L385 327L391 326L393 329L403 328L407 323L412 323L419 326z"/></g><g>
	<path stroke-linejoin="round" stroke="#f9fcfe" stroke-width="1" fill="#aad5ff" class="leaflet-clickable" d="M398 372L398 367L400 363L402 362L402 364L406 364L406 361L408 359L412 360L412 354L416 349L416 344L414 341L417 338L413 334L418 333L420 327L427 327L432 325L439 328L449 327L452 329L455 328L456 326L453 324L454 322L457 319L461 320L462 318L462 320L465 322L471 322L478 319L478 321L483 324L484 323L483 326L486 328L486 335L481 335L480 337L479 336L477 338L469 338L466 340L462 337L459 338L459 340L461 340L461 344L466 344L465 346L463 346L465 359L462 363L461 362L460 367L463 368L461 372L464 376L463 377L460 376L453 380L441 377L439 374L434 372L433 373L435 375L434 377L432 377L432 379L428 379L427 377L424 376L423 378L414 382L411 378L406 379L406 377L405 378L401 374L399 375L399 373z"/></g><g>
	<path stroke-linejoin="round" stroke="#f9fcfe" stroke-width="1" fill="#aad5ff" class="leaflet-clickable" d="M229 414L226 406L228 406L228 403L231 404L235 400L234 395L236 389L232 388L223 381L225 378L225 374L222 368L225 367L227 362L230 363L231 360L237 361L244 357L245 355L247 356L251 354L256 356L256 353L266 347L268 347L272 351L273 350L279 337L276 331L269 328L271 325L276 323L274 322L276 319L273 317L275 314L278 314L280 318L283 317L293 324L294 323L302 326L307 326L309 328L311 328L309 324L313 324L317 326L318 331L323 333L329 333L329 337L335 337L337 341L335 344L330 344L330 349L334 355L340 357L338 356L335 361L329 361L327 359L324 360L325 364L323 368L324 371L327 371L320 373L317 372L313 376L314 383L317 387L314 395L311 396L313 398L309 404L312 406L305 413L303 413L301 410L294 413L294 418L292 420L288 420L282 425L282 429L279 427L278 430L272 431L267 429L265 425L259 422L257 423L252 419L244 419L238 416L230 415z"/></g><g>
	<path stroke-linejoin="round" stroke="#f9fcfe" stroke-width="1" fill="#aad5ff" class="leaflet-clickable" d="M379 420L379 425L382 427L377 430L376 437L372 437L371 443L385 443L385 446L382 448L380 457L382 463L369 463L366 465L365 461L367 457L367 450L357 447L353 442L344 441L344 433L338 428L334 428L331 431L325 431L319 428L316 429L315 427L313 430L311 430L304 423L298 424L295 420L293 420L295 414L294 413L300 410L303 413L305 413L312 406L309 405L312 400L311 396L314 395L317 387L312 376L319 371L319 373L329 371L333 375L338 374L346 376L346 381L348 382L351 389L356 391L358 389L363 393L363 396L366 395L368 402L364 407L367 414L365 414L373 418L378 417L379 420z"/></g><g>
	<path stroke-linejoin="round" stroke="#f9fcfe" stroke-width="1" fill="#aad5ff" class="leaflet-clickable" d="M405 264L393 267L393 261L389 255L384 254L384 252L382 251L382 242L386 241L386 239L384 238L385 234L383 231L387 230L383 227L387 225L385 223L384 224L387 220L389 212L393 214L398 212L400 216L403 214L403 212L405 216L406 214L404 212L407 212L407 214L410 215L408 217L409 218L414 218L417 221L419 221L419 219L421 221L428 220L429 223L435 225L436 227L440 227L443 231L451 229L452 230L453 228L456 231L461 231L461 229L463 229L465 233L464 237L469 239L466 257L463 260L465 267L462 270L464 274L467 274L468 279L466 281L468 284L467 285L469 286L467 290L461 289L456 293L450 293L450 297L447 296L442 298L437 304L434 304L431 301L431 294L433 294L433 282L431 278L435 276L438 273L437 272L441 272L449 268L453 264L454 260L452 258L445 256L443 253L429 255L424 257L423 260L420 253L424 249L423 247L425 246L425 244L424 245L424 243L420 242L417 237L413 239L413 242L410 244L408 243L407 245L411 247L410 250L406 252L408 255L407 256L410 256L410 260L405 263z"/></g><g>
	<path stroke-linejoin="round" stroke="#f9fcfe" stroke-width="1" fill="#aad5ff" class="leaflet-clickable" d="M433 282L428 283L426 285L423 283L424 280L419 278L418 279L411 275L409 273L409 266L405 264L410 260L411 256L407 257L408 255L406 252L408 252L411 247L408 245L408 243L410 244L416 237L420 242L424 243L424 245L425 244L420 253L423 259L428 255L442 253L445 256L454 260L452 265L443 271L438 272L438 274L432 278L431 280L433 282z"/></g><g>
	<path stroke-linejoin="round" stroke="#f9fcfe" stroke-width="1" fill="#aad5ff" class="leaflet-clickable" d="M405 264L410 269L409 272L412 276L424 280L423 283L426 285L428 283L433 282L433 293L431 294L431 301L434 304L437 304L437 302L446 296L450 297L450 293L456 293L461 289L467 290L468 292L471 293L471 295L465 300L466 304L460 306L462 312L458 316L460 316L460 318L453 323L456 326L455 328L440 328L432 325L428 327L421 327L413 323L407 323L403 328L394 329L389 326L385 327L383 325L379 325L383 317L380 310L378 310L375 307L375 297L373 297L371 287L366 281L368 279L373 279L377 269L376 268L381 270L381 266L379 265L379 255L381 254L389 255L393 261L393 267L405 264z"/></g><g>
	<path stroke-linejoin="round" stroke="#f9fcfe" stroke-width="1" fill="#aad5ff" class="leaflet-clickable" d="M330 334L318 331L318 326L315 326L313 323L316 321L320 321L324 317L327 302L330 299L333 301L337 300L337 298L341 296L341 292L344 291L349 294L353 288L353 284L361 286L361 283L362 284L361 283L364 283L366 281L366 283L369 284L371 287L373 297L375 297L375 307L380 310L383 319L380 321L379 325L376 322L370 323L369 321L365 321L363 324L358 323L355 330L352 333L350 331L345 333L341 330L338 333L335 331L331 335z"/></g><g>
	<path stroke-linejoin="round" stroke="#f9fcfe" stroke-width="1" fill="#aad5ff" class="leaflet-clickable" d="M471 293L467 291L469 287L468 282L466 282L468 277L462 271L465 267L463 259L467 255L466 252L468 250L469 245L469 239L465 237L472 232L474 227L476 227L478 224L481 226L483 224L487 227L491 234L493 233L494 230L496 230L496 228L496 230L499 227L501 231L498 236L499 240L493 243L494 247L491 257L493 258L500 251L507 247L511 247L515 243L519 243L523 240L534 237L538 232L541 232L537 243L529 244L528 247L526 247L527 250L524 253L520 252L519 254L517 254L515 256L515 259L503 262L495 273L495 275L492 276L493 280L485 286L481 286L478 288L476 287L476 289L473 290L472 293z"/></g><g>
	<path stroke-linejoin="round" stroke="#f9fcfe" stroke-width="1" fill="#aad5ff" class="leaflet-clickable" d="M422 378L424 381L423 393L426 398L426 415L424 416L416 413L413 408L414 404L412 404L408 399L405 399L396 403L396 408L394 408L394 406L388 410L390 411L390 416L388 417L390 419L388 421L387 420L387 422L380 422L380 420L377 417L370 418L365 414L367 414L364 407L368 402L367 395L363 395L363 393L357 389L356 391L351 390L346 380L346 377L352 376L356 373L356 371L358 372L361 370L362 366L364 366L366 369L368 369L368 371L374 371L377 374L378 373L384 376L392 372L398 372L399 375L400 374L408 379L410 378L413 380L413 382L416 382L421 379z"/></g><g>
	<path stroke-linejoin="round" stroke="#f9fcfe" stroke-width="1" fill="#aad5ff" class="leaflet-clickable" d="M385 444L384 442L376 444L372 443L371 441L372 436L376 437L377 430L381 427L379 421L380 420L380 422L387 422L387 420L388 421L390 419L388 417L390 414L390 411L388 411L388 409L391 407L396 408L397 402L404 399L409 400L409 402L414 404L413 408L416 412L414 414L415 415L412 416L411 420L413 425L422 421L424 429L424 439L418 441L415 440L414 437L412 437L413 436L409 434L403 439L397 438L391 442L386 443z"/></g><g>
	<path stroke-linejoin="round" stroke="#f9fcfe" stroke-width="1" fill="#aad5ff" class="leaflet-clickable" d="M279 337L277 339L278 341L275 346L276 347L272 351L268 347L266 347L258 352L256 355L257 356L251 354L247 356L246 355L237 361L232 360L230 361L230 363L227 362L225 367L222 368L221 370L225 374L223 381L236 391L234 394L235 399L231 404L227 404L228 405L226 407L229 414L228 413L226 415L223 423L221 423L222 426L218 432L217 431L214 433L209 427L206 427L201 422L202 420L200 415L186 407L188 404L192 402L188 395L186 395L186 390L189 388L189 386L188 384L184 383L184 381L176 379L176 375L180 372L180 370L178 366L174 365L171 358L172 355L174 354L172 354L173 351L194 351L197 347L200 349L205 348L207 345L207 341L210 343L217 339L220 339L223 334L227 336L229 334L231 335L234 333L238 334L241 332L249 332L252 326L256 324L255 321L261 318L262 319L263 317L264 318L265 315L274 313L275 314L273 317L276 321L274 321L276 322L269 327L270 329L276 331L279 337z"/></g><g>
	<path stroke-linejoin="round" stroke="#f9fcfe" stroke-width="1" fill="#aad5ff" class="leaflet-clickable" d="M213 432L218 432L220 430L222 426L221 423L224 422L226 415L228 413L230 415L238 416L244 419L249 418L257 423L259 422L265 425L266 428L271 431L278 430L279 427L282 429L283 428L281 425L284 424L288 419L288 421L295 420L297 421L298 424L303 423L313 430L315 428L319 428L327 432L329 430L332 430L333 428L338 428L338 430L344 433L344 441L353 442L359 448L367 449L367 457L365 461L366 466L362 469L353 470L347 479L354 481L352 487L354 497L359 501L358 502L355 499L353 502L354 507L355 508L359 506L365 508L367 505L373 508L378 505L380 502L379 501L381 501L381 497L384 499L386 498L390 502L391 501L394 506L390 510L390 516L388 516L388 518L386 520L385 519L379 525L378 524L379 525L377 525L377 527L375 526L369 531L365 529L355 519L351 520L351 522L349 523L348 521L343 519L340 521L341 523L334 523L332 521L324 525L313 521L311 523L302 523L296 526L290 521L288 522L287 520L287 522L283 520L280 515L276 517L274 512L268 513L268 511L266 511L258 505L254 505L254 503L248 506L242 496L240 496L242 496L243 493L240 494L236 488L231 486L230 482L229 484L228 480L230 477L228 472L222 472L223 470L225 470L225 468L218 461L215 463L216 461L211 454L213 452L212 451L214 450L212 442L214 440L213 433z"/></g><g>
 <path stroke-linejoin="round" stroke="#f9fcfe" stroke-width="1" fill="#aad5ff" class="leaflet-clickable" d="M464 376L461 372L461 369L463 368L460 367L460 364L465 360L463 347L466 345L464 343L461 344L461 340L459 340L459 338L462 337L465 340L469 338L477 338L478 336L480 337L486 335L487 331L491 331L497 334L499 340L499 347L506 354L510 353L514 355L515 351L525 354L531 353L534 350L537 352L540 350L544 355L547 353L545 362L550 369L558 373L558 377L561 377L563 375L564 377L566 375L572 377L569 380L569 383L571 385L569 385L569 390L571 391L573 397L576 400L576 406L575 407L571 405L568 408L565 408L562 414L561 413L560 415L556 415L551 419L545 420L537 412L538 409L534 405L533 406L534 400L528 397L527 395L526 398L524 397L524 395L520 392L513 393L511 391L505 391L504 396L500 397L499 399L492 396L490 398L489 396L485 400L483 399L481 402L478 401L475 403L473 402L475 396L479 394L478 383L471 378L467 378L464 376z"/></g><g>
	<path stroke-linejoin="round" stroke="#f9fcfe" stroke-width="1" fill="#aad5ff" class="leaflet-clickable" d="M389 531L391 528L391 524L387 520L388 516L390 516L390 510L394 504L400 505L403 513L409 512L409 510L411 517L416 517L416 514L418 514L419 517L422 517L421 518L424 523L428 524L428 527L433 530L437 530L438 528L440 530L446 525L445 524L447 522L442 518L443 512L451 512L451 510L453 512L454 511L455 513L457 512L456 511L458 509L456 505L463 504L467 501L476 503L479 506L489 506L489 508L491 509L496 507L496 509L498 509L498 511L507 520L506 521L508 519L510 521L512 519L513 520L513 516L515 516L515 514L518 515L520 513L520 516L529 507L530 508L526 510L524 513L527 514L526 516L528 522L529 536L531 539L529 547L530 552L528 556L529 559L527 564L529 565L529 567L525 569L519 567L517 569L514 568L506 574L504 574L494 590L495 595L493 597L487 598L487 596L484 595L483 593L485 586L480 581L478 582L476 588L471 587L469 591L468 590L459 592L456 591L456 588L450 587L451 586L449 586L447 583L443 585L441 581L444 574L443 569L441 569L441 571L439 569L435 572L424 570L421 564L417 562L415 564L414 563L414 565L411 568L405 570L403 568L403 563L401 561L399 563L395 562L395 558L393 555L394 554L390 552L392 549L388 545L388 542L389 543L391 541L390 539L392 537L389 534L389 532z"/></g><g>
	<path stroke-linejoin="round" stroke="#f9fcfe" stroke-width="1" fill="#aad5ff" class="leaflet-clickable" d="M422 378L423 376L432 379L432 377L434 377L435 375L433 373L434 372L438 374L439 373L441 377L449 378L452 380L460 376L466 376L467 378L469 377L477 382L479 386L477 393L479 394L478 396L475 396L473 402L474 403L477 403L477 401L481 402L483 400L482 399L485 400L486 397L488 396L489 398L492 396L498 399L505 395L505 392L507 391L510 391L512 393L512 395L507 400L507 405L505 407L511 408L510 414L506 415L509 420L508 421L511 430L505 432L500 431L497 432L495 436L492 436L493 437L490 442L490 446L492 447L493 451L491 453L492 455L490 458L491 459L489 460L489 465L487 464L481 467L480 469L477 469L469 467L469 465L466 463L461 469L461 471L455 470L455 468L449 462L453 455L450 451L448 451L447 448L446 449L443 447L442 442L437 443L434 439L429 441L425 438L424 439L425 432L423 431L422 422L413 425L411 420L415 413L424 416L426 415L426 399L422 390L424 388L423 379z"/></g><g>
	<path stroke-linejoin="round" stroke="#f9fcfe" stroke-width="1" fill="#aad5ff" class="leaflet-clickable" d="M394 506L391 502L386 498L384 499L383 497L381 498L381 501L379 501L380 502L376 507L375 506L371 508L368 505L365 508L359 506L355 508L353 502L355 500L357 500L358 502L359 501L354 497L352 487L355 481L347 479L349 474L354 470L361 469L368 463L381 464L383 461L380 457L385 444L387 442L393 442L397 438L403 439L408 434L418 442L419 440L423 440L425 438L429 440L434 439L439 443L442 442L443 447L446 449L447 448L450 452L452 452L453 455L449 462L455 467L455 470L465 470L466 473L463 473L464 475L462 476L465 477L467 480L479 483L480 486L483 487L482 489L484 491L482 491L481 496L483 502L484 501L482 503L483 504L479 507L478 505L467 501L464 502L463 504L458 504L456 507L458 508L455 513L452 510L445 513L443 512L442 518L447 522L445 524L446 525L440 530L438 528L435 530L429 529L428 525L426 523L424 524L424 520L421 518L421 516L419 518L418 514L416 514L416 516L411 517L409 510L409 512L404 513L400 505L395 504L394 506z"/></g><g>
	<path stroke-linejoin="round" stroke="#f9fcfe" stroke-width="1" fill="#aad5ff" class="leaflet-clickable" d="M313 323L312 325L310 324L309 326L310 325L311 328L309 328L307 326L302 326L295 323L293 324L284 317L280 318L280 304L282 302L280 298L292 301L296 300L295 303L302 301L313 303L318 302L318 299L319 301L321 301L323 305L324 303L326 305L325 315L319 321L314 322z"/></g></svg>